<svg id="Capa_1" enable-background="new 0 0 512 512" height="512" viewBox="0 0 512 512" width="512" xmlns="http://www.w3.org/2000/svg"><g><path d="m482 0h-226l-20 150 20 362h226z" fill="#efe2dd"/><path d="m30 0h226v512h-226z" fill="#fff5f5"/><path d="m452 150h-196l-20 181 20 151h196z" fill="#fb3"/><path d="m60 150h196v332h-196z" fill="#fd3"/><path d="m422 452v-272h-166l-20 151 20 121z" fill="#ff884d"/><path d="m452 30h-196l-20 45 20 45h196z" fill="#ff884d"/><path d="m60 30h196v90h-196z" fill="#fb3"/><path d="m91 60h30v30h-30z" fill="#fff5f5"/><path d="m151 60h30v30h-30z" fill="#fff5f5"/><path d="m211 60h30v30h-30z" fill="#fff5f5"/><g fill="#efe2dd"><path d="m271 60h30v30h-30z"/><path d="m331 60h30v30h-30z"/><path d="m391 60h30v30h-30z"/><path d="m316 241v60h-30v-60h-30l-20 90h80v60h30v-150z"/></g><path d="m90 452h166v-61l-10-15.191 10-14.809v-181h-166z" fill="#fb3"/><path d="m226 361v-120h-60v30h30v90h-30v30h90v-30z" fill="#fff5f5"/></g></svg>